<svg width="21" height="22" viewBox="0 0 21 22" fill="none" xmlns="http://www.w3.org/2000/svg">
<path d="M0.5 9.27004C0.5 14.1048 4.43529 18.0401 9.27004 18.0401C14.1048 18.0401 18.0401 14.1048 18.0401 9.27004C18.0401 4.43529 14.1048 0.5 9.27004 0.5C4.43529 0.5 0.5 4.43529 0.5 9.27004ZM2.71025 9.27004C2.71025 5.65688 5.64955 2.71025 9.27004 2.71025C12.8905 2.71025 15.8298 5.65688 15.8298 9.27004C15.8298 12.8832 12.8905 15.8298 9.27004 15.8298C5.64955 15.8298 2.71025 12.8832 2.71025 9.27004Z" fill="#A56DFF" stroke="#A56DFF"/>
<path d="M19.3756 21.9308C18.9627 21.9308 18.5498 21.7767 18.2238 21.4466L13.8777 17.0442C13.2475 16.4058 13.2475 15.3493 13.8777 14.7109C14.5079 14.0726 15.551 14.0726 16.1811 14.7109L20.5273 19.1133C21.1575 19.7517 21.1575 20.8082 20.5273 21.4466C20.2014 21.7767 19.7885 21.9308 19.3756 21.9308Z" fill="#A56DFF"/>
</svg>
